<?xml version="1.0" encoding="UTF-8"?>
<svg id="Layer_2" data-name="Layer 2" xmlns="http://www.w3.org/2000/svg" xmlns:xlink="http://www.w3.org/1999/xlink" viewBox="0 0 106.7 46.39">
  <defs>
    <style>
      .cls-1 {
        fill: url(#linear-gradient-2);
      }

      .cls-2 {
        fill: url(#linear-gradient-3);
      }

      .cls-3 {
        fill: url(#linear-gradient);
      }
    </style>
    <linearGradient id="linear-gradient" x1="3.48" y1="23.19" x2="28.15" y2="23.19" gradientUnits="userSpaceOnUse">
      <stop offset="0" stop-color="#fbac44"/>
      <stop offset=".17" stop-color="#f89940"/>
      <stop offset=".52" stop-color="#f36936"/>
      <stop offset=".87" stop-color="#ee352b"/>
      <stop offset="1" stop-color="#ee302a"/>
    </linearGradient>
    <linearGradient id="linear-gradient-2" x1="0" y1="29.97" x2="20.47" y2="29.97" gradientUnits="userSpaceOnUse">
      <stop offset=".15" stop-color="#ee302a"/>
      <stop offset=".27" stop-color="#f0432e"/>
      <stop offset=".61" stop-color="#f57b39"/>
      <stop offset=".86" stop-color="#f99e41"/>
      <stop offset="1" stop-color="#fbac44"/>
    </linearGradient>
    <linearGradient id="linear-gradient-3" x1="-11.57" y1="3.69" x2="65.73" y2="3.69" gradientTransform="translate(40.97 20.02)" gradientUnits="userSpaceOnUse">
      <stop offset="0" stop-color="#ee302a"/>
      <stop offset="1" stop-color="#fbac44"/>
    </linearGradient>
  </defs>
  <g id="Layer_1-2" data-name="Layer 1">
    <g>
      <path class="cls-3" d="m20.44,0c-.12.61-.24,1.31-.32,2.1-.12,1.11-.12,1.98-.12,2.76,0,.74.02,1.35.06,2.14.08,1.74.2,3.56.39,5.66.15,1.7.26,2.53.34,3.1.03.18.06.36.06.36.05.28.18,1.08.42,2.11,0,0,.26,1.14.59,2.26.44,1.51,1.72,4.77,3.85,8.87.62,1.08,1.1,1.9,1.37,2.38.78,1.32,1.15,1.93,1.09,2.79-.03.47-.19.84-.31,1.08-.02.05-.38.96-1.37,1.15-.95.18-1.61-.5-1.65-.54-.15-.25-.39-.64-.63-1.14-.23-.48-.38-.85-.41-.95-.08-.21-.89-2.07-2.52-5.81-.67-1.54-1.84-4.02-3.87-7.66-.08-.14-.2-.34-.36-.59-.52-.79-.78-1.19-1.24-1.41-.45-.22-.86-.19-.96-.18-.46.05-.78.26-.92.37-.75.69-1.63,1.64-2.46,2.87-1.27,1.89-1.9,3.7-2.22,4.98-.23.82-.45,1.84-.55,3.02-.09,1.1-.06,2.08.01,2.89.03.14.08.34.13.59.05.26.29,1.38.38,2.07.07.58.12,1.46-.07,2.62-.2.97-.39,1.98-.56,3.04-.16,1.04-.3,2.03-.4,3-.29,1.5-.79,2.5-1.29,2.51-.13,0-.34-.06-.61-.46-.7-1.77-1.52-4.21-2.09-7.2-.31-1.65-.74-3.94-.69-6.93.03-2,.29-4.9,1.34-8.3.51-1.5,1.28-3.31,2.46-5.23.36-.58,1.16-1.83,2.39-3.28.96-1.13,1.7-1.81,2.23-2.34,2.37-2.32,3.95-4.61,4.8-5.84,1.08-1.57,2.46-3.83,3.73-6.8Z"/>
      <path class="cls-1" d="m20.47,26.58c-1.78,2.16-4.62,5.11-8.75,7.72-.84.53-1.67,1.01-2.49,1.44-1.85.97-3.61,1.7-5.2,2.24-1.52.52-2.89.88-4.03,1.13,1.41-.7,2.7-1.4,3.87-2.09,2.05-1.21,3.73-2.38,5.04-3.36,2.19-1.64,4.07-3.3,5.8-5.5,1.51-1.93,2.35-3.57,2.66-5.47.12-.76.14-1.41.13-1.85,1.34,2.41,2.3,4.31,2.98,5.75Z"/>
      <path class="cls-2" d="m35.98,17.36c-.34-.34-.74-.61-1.2-.81s-.95-.3-1.47-.3-1.01.1-1.47.3c-.46.2-.86.47-1.2.81-.34.34-.61.74-.81,1.2-.2.46-.3.95-.3,1.47v5.66h1.88v-1.89h3.78v1.89h1.89v-5.66c0-.52-.1-1.01-.3-1.47-.2-.46-.47-.86-.81-1.2Zm-.78,4.56h-3.78v-1.89c0-.26.05-.5.15-.73.1-.23.23-.43.4-.6s.37-.31.6-.4c.23-.1.47-.15.73-.15s.5.05.73.15c.23.1.43.23.6.4s.31.37.4.6c.1.23.15.47.15.73v1.89Zm10.3,3.77l-2.34-4.1,2.34-2.93h-2.07l-2.68,3.39v-6.21h-1.81v9.85h1.81v-.9l1.25-1.66,1.43,2.56h2.07Zm7.13-6.26c-.32-.33-.7-.59-1.14-.78-.44-.19-.9-.28-1.4-.28-.16,0-.33.02-.5.05-.17.03-.34.08-.5.14-.16.06-.31.14-.45.24-.14.1-.26.21-.35.33v-3.29h-1.8v6.26c0,.54.09,1.04.28,1.5.19.45.45.85.77,1.17.33.33.71.59,1.14.77.44.18.9.28,1.4.28s.97-.09,1.4-.27c.44-.18.82-.43,1.14-.76.32-.33.58-.72.77-1.17.19-.46.28-.96.28-1.51s-.09-1.04-.28-1.49c-.19-.45-.45-.85-.77-1.18Zm-.9,3.43c-.09.23-.22.43-.38.61-.16.17-.35.31-.57.4-.22.1-.45.15-.69.15s-.48-.05-.69-.15c-.22-.1-.41-.23-.57-.4-.16-.17-.29-.37-.38-.61-.09-.23-.14-.48-.14-.76,0-.25.05-.48.14-.71.09-.23.22-.43.38-.61.16-.18.35-.32.57-.43.22-.11.45-.16.69-.16s.48.05.69.14c.22.1.41.23.57.4.16.17.29.37.38.61.09.23.14.49.14.76s-.05.52-.14.76Zm9.12,1.89c.32-.33.58-.72.77-1.18.19-.45.28-.94.28-1.47,0-.56-.09-1.07-.28-1.53s-.45-.85-.77-1.18c-.32-.33-.7-.58-1.14-.76-.44-.18-.9-.27-1.4-.27s-.96.09-1.4.28c-.44.19-.82.45-1.14.78-.33.33-.58.72-.77,1.18-.19.46-.28.95-.28,1.49s.09,1.02.28,1.47c.19.45.45.85.77,1.18.33.33.71.59,1.14.78.44.19.9.29,1.4.29s.97-.1,1.4-.29c.44-.19.82-.45,1.14-.78Zm-1.85-.87c-.22.09-.45.14-.69.14s-.48-.05-.69-.15c-.22-.1-.41-.23-.57-.4-.16-.17-.29-.37-.38-.61-.09-.23-.14-.48-.14-.76,0-.29.05-.55.14-.79.09-.23.22-.44.38-.61.16-.17.35-.3.57-.39.22-.09.45-.13.69-.13s.48.04.69.13c.22.09.41.22.57.39.16.17.29.37.38.61.09.23.14.5.14.79s-.05.55-.14.78c-.09.24-.22.44-.38.61-.16.17-.35.3-.57.39Zm6.33-5.01c-.37.14-.7.35-.99.61l-.59-.84h-.43v7.04h1.8v-3.88c0-.19.04-.37.11-.53.07-.17.17-.31.29-.43.12-.12.27-.22.43-.29.17-.07.34-.11.53-.11h1.59v-1.79h-1.59c-.39,0-.78.07-1.14.21Zm15.35,3.99c0-.39-.07-.76-.22-1.1-.15-.34-.35-.64-.61-.9-.26-.26-.56-.46-.9-.61-.34-.15-.71-.22-1.1-.22h-1.89c-.13,0-.25-.02-.37-.07-.11-.05-.21-.12-.3-.2-.09-.09-.15-.19-.2-.3-.05-.12-.07-.24-.07-.37s.02-.25.07-.37c.05-.11.12-.21.2-.3.09-.09.19-.15.3-.2.11-.05.24-.07.37-.07h4.33v-1.89h-4.33c-.39,0-.76.07-1.1.22-.34.15-.64.35-.9.61-.26.26-.46.56-.61.9-.15.34-.22.71-.22,1.1s.07.76.22,1.1c.15.34.35.64.61.9.26.26.56.46.9.61.34.15.71.22,1.1.22h1.89c.13,0,.25.02.37.07.11.05.21.12.3.2.09.09.15.19.2.3.05.11.07.24.07.37s-.02.25-.07.37c-.05.11-.12.21-.2.3-.09.09-.19.15-.3.2-.11.05-.24.07-.37.07h-4.19v1.89h4.19c.39,0,.76-.07,1.1-.22.34-.15.64-.35.9-.61s.46-.56.61-.9c.15-.34.22-.71.22-1.1Zm5.68-1.27l2.34-2.93h-2.07l-2.68,3.39v-6.21h-1.81v9.85h1.81v-.9l1.25-1.66,1.43,2.56h2.07l-2.34-4.1Zm5.23-5.71c-.11-.11-.24-.19-.38-.26-.15-.06-.3-.1-.47-.1s-.32.03-.47.1c-.15.06-.27.15-.38.26-.11.11-.19.23-.26.38-.06.15-.1.3-.1.46s.03.32.1.47c.06.14.15.27.26.38.11.11.23.19.38.26.15.06.3.1.47.1s.32-.03.47-.1c.15-.06.28-.15.38-.26.11-.11.2-.23.26-.38.06-.14.1-.3.1-.47s-.03-.32-.1-.46c-.06-.15-.15-.27-.26-.38Zm-1.76,9.8h1.81v-7.04h-1.81v7.04Zm5.4-9.85h-1.81v9.85h1.81v-9.85Zm1.79,9.85h1.81v-9.85h-1.81v9.85Zm9.52-3.09c-.12-.26-.28-.48-.48-.66-.2-.18-.44-.33-.71-.43-.27-.1-.56-.15-.87-.15h-1.87c-.12,0-.23-.04-.32-.13-.09-.09-.13-.2-.13-.33s.04-.23.13-.32c.09-.09.19-.13.32-.13h3.64v-1.79h-3.64c-.31,0-.6.06-.87.17-.27.12-.51.28-.71.48-.2.2-.36.44-.48.71-.12.27-.17.56-.17.87s.06.6.17.87c.12.27.28.51.48.71.2.2.44.37.71.48s.56.18.87.18h1.87c.12,0,.23.02.32.06.09.04.13.12.13.25s-.04.23-.13.32c-.09.09-.19.13-.32.13h-4.1v1.79h4.1c.31,0,.6-.06.87-.17.27-.12.51-.28.71-.48.2-.2.36-.44.48-.71.12-.27.18-.56.18-.87s-.06-.59-.18-.85Zm-74.08,4.98c-.09-.15-.2-.29-.32-.42-.13-.13-.27-.24-.42-.33-.15-.09-.32-.16-.5-.21-.18-.05-.36-.07-.55-.07h-1.25v4.15h1.25c.19,0,.38-.02.55-.07.18-.05.34-.12.5-.21.15-.09.29-.2.42-.33.13-.13.23-.27.32-.42.09-.15.16-.32.21-.5.05-.18.07-.36.07-.55s-.02-.38-.07-.55c-.05-.18-.12-.34-.21-.5Zm-.64,1.53c-.06.15-.15.28-.27.4-.11.11-.25.2-.4.27-.15.06-.31.1-.49.1h-.41v-2.49h.41c.17,0,.33.03.49.1.15.07.28.15.4.27.11.11.2.24.27.4s.1.31.1.48-.03.33-.1.49Zm5.01-1.24c-.1-.08-.2-.15-.31-.21-.11-.06-.23-.1-.35-.13-.12-.03-.25-.05-.38-.05-.22,0-.42.04-.62.12-.19.08-.36.19-.5.33-.14.14-.26.32-.34.52-.08.2-.12.43-.12.67s.04.46.12.66c.08.2.2.37.34.52s.31.26.5.34c.19.08.4.12.62.12.13,0,.26-.01.38-.04.12-.03.24-.07.35-.13.11-.06.21-.13.31-.21.1-.08.18-.18.25-.28l-.58-.58c-.03.07-.07.13-.12.19-.05.06-.11.11-.17.14-.06.04-.13.07-.2.09-.07.02-.15.03-.22.03-.03,0-.06,0-.09,0-.03,0-.06,0-.09-.02l1.48-1.79c-.07-.1-.16-.2-.25-.28Zm-1.74,1.66s-.03-.06-.04-.09c0-.03-.02-.07-.02-.11,0-.04-.01-.07-.01-.11,0-.04,0-.07,0-.1,0-.13.02-.25.06-.35s.1-.19.17-.27c.07-.07.15-.13.25-.17.1-.04.2-.06.31-.06.04,0,.08,0,.11,0,.04,0,.07.01.11.03l-.92,1.22Zm4.79,0l-.68-1.93h-.9l1.18,3.1h.79l1.18-3.1h-.9l-.67,1.93Zm5.41-1.66c-.1-.08-.2-.15-.31-.21-.11-.06-.23-.1-.35-.13-.12-.03-.25-.05-.38-.05-.22,0-.42.04-.62.12-.19.08-.36.19-.5.33-.14.14-.26.32-.34.52-.08.2-.12.43-.12.67s.04.46.12.66c.08.2.2.37.34.52.14.14.31.26.5.34.19.08.4.12.62.12.13,0,.26-.01.38-.04.12-.03.24-.07.35-.13.11-.06.21-.13.31-.21.1-.08.18-.18.25-.28l-.58-.58c-.03.07-.07.13-.12.19-.05.06-.11.11-.17.14-.06.04-.13.07-.2.09-.07.02-.15.03-.22.03-.03,0-.06,0-.09,0-.03,0-.06,0-.09-.02l1.48-1.79c-.07-.1-.16-.2-.25-.28Zm-1.74,1.66s-.03-.06-.04-.09c0-.03-.02-.07-.02-.11,0-.04-.01-.07-.01-.11,0-.04,0-.07,0-.1,0-.13.02-.25.06-.35s.1-.19.17-.27c.07-.07.15-.13.25-.17.1-.04.2-.06.31-.06.04,0,.08,0,.11,0,.04,0,.07.01.11.03l-.92,1.22Zm3.55,1.17h.8v-4.34h-.8v4.34Zm5.09-2.77c-.14-.14-.31-.25-.5-.33-.19-.08-.4-.12-.62-.12s-.42.04-.62.12c-.19.08-.36.2-.5.34-.14.15-.26.32-.34.52-.08.2-.12.42-.12.65s.04.45.12.65c.08.2.2.37.34.52.14.15.31.26.5.34.19.08.4.13.62.13s.43-.04.62-.13c.19-.08.36-.2.5-.34.14-.15.26-.32.34-.52.08-.2.12-.42.12-.65,0-.25-.04-.47-.12-.67-.08-.2-.2-.37-.34-.52Zm-.4,1.54c-.04.1-.1.19-.17.27-.07.07-.15.13-.25.17-.1.04-.2.06-.31.06s-.21-.02-.31-.07c-.1-.04-.18-.1-.25-.18-.07-.08-.13-.16-.17-.27-.04-.1-.06-.21-.06-.33,0-.13.02-.24.06-.35.04-.1.1-.19.17-.27.07-.07.15-.13.25-.17.1-.04.2-.06.31-.06s.21.02.31.06c.1.04.18.1.25.17.07.07.13.16.17.27.04.1.06.22.06.35s-.02.24-.06.34Zm5.16-1.53c-.14-.14-.31-.25-.5-.33-.19-.08-.4-.12-.62-.12-.1,0-.2.01-.3.04-.1.03-.19.06-.29.1-.09.04-.18.1-.26.15-.08.06-.16.12-.23.19l-.32-.37h-.19v4.28h.8v-1.39c.06.03.12.07.19.1.06.03.13.06.2.09.07.03.13.05.2.06.07.02.14.02.21.02.22,0,.42-.04.62-.11.19-.08.36-.18.5-.33.14-.14.26-.31.34-.52.08-.2.12-.43.12-.69s-.04-.47-.12-.67c-.08-.2-.2-.37-.34-.52Zm-.39,1.53c-.04.1-.1.19-.17.27-.07.07-.16.13-.25.17-.1.04-.2.06-.31.06s-.21-.02-.31-.06c-.1-.04-.18-.1-.25-.17-.07-.07-.13-.16-.17-.27-.04-.1-.06-.22-.06-.34s.02-.25.06-.35c.04-.1.1-.19.17-.27.07-.07.15-.13.25-.17.1-.04.2-.06.31-.06s.21.02.31.06c.1.04.18.09.25.17.07.07.13.16.17.27.04.1.06.22.06.35s-.02.24-.06.34Zm6.05-1.58c-.11-.11-.23-.19-.38-.25-.14-.06-.3-.09-.46-.09-.07,0-.14,0-.22.02-.07.01-.14.03-.21.06-.07.03-.13.07-.2.11s-.12.1-.17.17c-.1-.13-.23-.23-.36-.28-.14-.05-.28-.08-.42-.08s-.28.03-.41.08c-.13.05-.25.12-.36.22l-.21-.24h-.19v3.1h.79v-1.97c0-.05.01-.11.03-.15.02-.05.05-.09.08-.13.04-.04.08-.07.12-.09.05-.02.1-.03.15-.03s.11.01.15.03c.05.02.09.05.13.09.04.04.07.08.09.13.02.05.03.1.03.15v1.97h.79v-1.97c0-.05.01-.11.03-.15.02-.05.05-.09.08-.13.04-.04.08-.07.12-.09.05-.02.1-.03.15-.03s.11.01.15.03c.05.02.09.05.13.09.04.04.07.08.09.13.02.05.03.1.03.15v1.97h.79v-1.97c0-.16-.03-.32-.09-.46-.06-.14-.15-.27-.25-.38Zm4.54-.02c-.1-.08-.2-.15-.31-.21-.11-.06-.23-.1-.35-.13-.12-.03-.25-.05-.38-.05-.22,0-.42.04-.62.12-.19.08-.36.19-.5.33-.14.14-.26.32-.34.52-.08.2-.12.43-.12.67s.04.46.12.66c.08.2.2.37.34.52s.31.26.5.34c.19.08.4.12.62.12.13,0,.26-.01.38-.04.12-.03.24-.07.35-.13.11-.06.21-.13.31-.21.1-.08.18-.18.25-.28l-.58-.58c-.03.07-.07.13-.12.19-.05.06-.11.11-.17.14-.06.04-.13.07-.2.09-.07.02-.15.03-.22.03-.03,0-.06,0-.09,0-.03,0-.06,0-.09-.02l1.48-1.79c-.07-.1-.16-.2-.25-.28Zm-1.74,1.66s-.03-.06-.04-.09c0-.03-.02-.07-.02-.11,0-.04-.01-.07-.01-.11,0-.04,0-.07,0-.1,0-.13.02-.25.06-.35s.1-.19.17-.27c.07-.07.15-.13.25-.17.1-.04.2-.06.31-.06.04,0,.08,0,.11,0,.04,0,.07.01.11.03l-.92,1.22Zm5.92-1.59c-.13-.13-.27-.23-.44-.3-.17-.07-.35-.11-.54-.11-.18,0-.34.03-.51.09-.16.06-.31.15-.43.27l-.26-.3h-.19v3.1h.79v-1.77c0-.08.02-.16.05-.23.03-.07.07-.14.13-.19.05-.05.12-.1.19-.13.07-.03.15-.05.23-.05s.16.02.23.05c.07.03.13.07.19.13.05.05.1.12.13.19.03.07.05.15.05.23v1.77h.79v-1.77c0-.19-.04-.37-.11-.54-.07-.17-.17-.32-.3-.44Zm3.04-1.58h-.79v1.24h-.39v.79h.39v.92c0,.19.04.37.11.54.07.17.17.32.3.44.13.13.27.23.44.3.17.07.35.11.54.11h.6v-.79h-.6c-.08,0-.16-.02-.23-.05-.07-.03-.14-.07-.19-.13-.05-.05-.1-.12-.13-.19-.03-.07-.05-.15-.05-.23v-.92h1.2v-.79h-1.2v-1.24Zm6.53.18h-.83v4.15h2.91v-.83h-2.08v-3.32Zm4.36-.16s-.1-.08-.17-.11c-.06-.03-.13-.04-.21-.04s-.14.01-.21.04c-.06.03-.12.07-.17.11-.05.05-.09.1-.11.17-.03.06-.04.13-.04.2s.01.14.04.21.07.12.11.17c.05.05.1.08.17.11.06.03.13.04.21.04s.14-.01.21-.04c.06-.03.12-.07.17-.11s.09-.1.11-.17.04-.13.04-.21-.01-.14-.04-.2c-.03-.06-.07-.12-.11-.17Zm-.78,4.32h.8v-3.1h-.8v3.1Zm6.15-2.81c-.11-.11-.23-.19-.38-.25-.14-.06-.3-.09-.46-.09-.07,0-.14,0-.22.02-.07.01-.14.03-.21.06-.07.03-.13.07-.2.11-.06.05-.12.1-.17.17-.1-.13-.23-.23-.36-.28-.14-.05-.28-.08-.42-.08s-.28.03-.41.08-.25.12-.36.22l-.21-.24h-.19v3.1h.79v-1.97c0-.05.01-.11.03-.15.02-.05.05-.09.08-.13.04-.04.08-.07.12-.09.05-.02.1-.03.15-.03s.11.01.15.03c.05.02.09.05.13.09.04.04.07.08.09.13.02.05.03.1.03.15v1.97h.79v-1.97c0-.05.01-.11.03-.15.02-.05.05-.09.08-.13.04-.04.08-.07.12-.09.05-.02.1-.03.15-.03s.11.01.15.03c.05.02.09.05.13.09.04.04.07.08.09.13.02.05.03.1.03.15v1.97h.79v-1.97c0-.16-.03-.32-.09-.46-.06-.14-.15-.27-.25-.38Zm2.85-1.51s-.1-.08-.17-.11c-.06-.03-.13-.04-.21-.04s-.14.01-.21.04c-.06.03-.12.07-.17.11-.05.05-.09.1-.11.17-.03.06-.04.13-.04.2s.01.14.04.21.07.12.11.17c.05.05.1.08.17.11.06.03.13.04.21.04s.14-.01.21-.04c.06-.03.12-.07.17-.11.05-.05.09-.1.11-.17s.04-.13.04-.21-.01-.14-.04-.2c-.03-.06-.07-.12-.11-.17Zm-.78,4.32h.8v-3.1h-.8v3.1Zm3.51-4.34h-.79v1.24h-.39v.79h.39v.92c0,.19.04.37.11.54.07.17.17.32.3.44.13.13.27.23.44.3.17.07.35.11.54.11h.6v-.79h-.6c-.08,0-.16-.02-.23-.05-.07-.03-.14-.07-.19-.13-.05-.05-.1-.12-.13-.19-.03-.07-.05-.15-.05-.23v-.92h1.2v-.79h-1.2v-1.24Zm5.26,1.51c-.1-.08-.2-.15-.31-.21-.11-.06-.23-.1-.35-.13-.12-.03-.25-.05-.38-.05-.22,0-.42.04-.62.12-.19.08-.36.19-.5.33-.14.14-.26.32-.34.52-.08.2-.12.43-.12.67s.04.46.12.66c.08.2.2.37.34.52s.31.26.5.34c.19.08.4.12.62.12.13,0,.26-.01.38-.04.12-.03.24-.07.35-.13s.21-.13.31-.21c.1-.08.18-.18.25-.28l-.58-.58c-.03.07-.07.13-.12.19-.05.06-.11.11-.17.14-.06.04-.13.07-.2.09-.07.02-.15.03-.22.03-.03,0-.06,0-.09,0-.03,0-.06,0-.09-.02l1.48-1.79c-.07-.1-.16-.2-.25-.28Zm-1.74,1.66s-.03-.06-.04-.09c0-.03-.02-.07-.02-.11,0-.04-.01-.07-.01-.11,0-.04,0-.07,0-.1,0-.13.02-.25.06-.35s.1-.19.17-.27c.07-.07.15-.13.25-.17.1-.04.2-.06.31-.06.04,0,.08,0,.11,0,.04,0,.07.01.11.03l-.92,1.22Zm5.73-1.72c-.04-.06-.09-.11-.16-.16-.06-.04-.13-.08-.2-.1-.07-.03-.14-.04-.22-.06-.07-.01-.15-.02-.22-.02-.22,0-.42.04-.62.12-.19.08-.36.2-.5.34-.14.15-.26.32-.34.52-.08.2-.12.42-.12.65s.04.45.12.65c.08.2.2.37.34.52.14.15.31.26.5.34.19.08.4.12.62.12.1,0,.2-.01.3-.04.1-.03.19-.06.29-.1.09-.04.18-.09.27-.15.08-.06.16-.12.24-.19l.31.43h.19v-4.34h-.8v1.45Zm-.06,1.62c-.04.1-.1.19-.17.27-.07.08-.15.14-.25.19-.1.05-.2.07-.31.07s-.21-.02-.31-.07c-.1-.04-.18-.11-.25-.18-.07-.08-.13-.17-.17-.27s-.06-.21-.06-.32c0-.13.02-.25.06-.35s.1-.19.17-.27c.07-.07.15-.13.25-.17.1-.04.2-.06.31-.06s.21.02.31.07c.1.05.18.11.25.19.07.08.13.17.17.27.04.1.06.21.06.31s-.02.21-.06.31Z"/>
    </g>
  </g>
</svg>